<svg width="512" height="512" viewBox="0 0 512 512" xmlns="http://www.w3.org/2000/svg">
  <!-- Background -->
  <rect width="512" height="512" rx="80" fill="#2563eb"/>
  
  <!-- Main Content -->
  <g transform="translate(100, 100)">
    <!-- Calendar Base -->
    <rect x="20" y="40" width="272" height="240" rx="16" fill="white" opacity="0.95"/>
    
    <!-- Calendar Header -->
    <rect x="20" y="40" width="272" height="48" rx="16" fill="#1e40af"/>
    <rect x="20" y="72" width="272" height="16" fill="#1e40af"/>
    
    <!-- Calendar Grid -->
    <g fill="#374151" opacity="0.7">
      <!-- Week days -->
      <circle cx="55" cy="115" r="8"/>
      <circle cx="90" cy="115" r="8"/>
      <circle cx="125" cy="115" r="8"/>
      <circle cx="160" cy="115" r="8"/>
      <circle cx="195" cy="115" r="8"/>
      <circle cx="230" cy="115" r="8"/>
      <circle cx="265" cy="115" r="8"/>
      
      <!-- Week 2 -->
      <circle cx="55" cy="150" r="8"/>
      <circle cx="90" cy="150" r="8"/>
      <circle cx="125" cy="150" r="8"/>
      <circle cx="160" cy="150" r="8" fill="#2563eb"/>
      <circle cx="195" cy="150" r="8"/>
      <circle cx="230" cy="150" r="8"/>
      <circle cx="265" cy="150" r="8"/>
      
      <!-- Week 3 -->
      <circle cx="55" cy="185" r="8"/>
      <circle cx="90" cy="185" r="8"/>
      <circle cx="125" cy="185" r="8"/>
      <circle cx="160" cy="185" r="8"/>
      <circle cx="195" cy="185" r="8"/>
      <circle cx="230" cy="185" r="8"/>
      <circle cx="265" cy="185" r="8"/>
      
      <!-- Week 4 -->
      <circle cx="55" cy="220" r="8"/>
      <circle cx="90" cy="220" r="8"/>
      <circle cx="125" cy="220" r="8"/>
      <circle cx="160" cy="220" r="8"/>
      <circle cx="195" cy="220" r="8"/>
      <circle cx="230" cy="220" r="8"/>
      <circle cx="265" cy="220" r="8"/>
    </g>
    
    <!-- Utensils Icon -->
    <g transform="translate(240, 160)" fill="white">
      <!-- Fork -->
      <rect x="-2" y="0" width="1" height="30" rx="0.5"/>
      <rect x="0" y="0" width="1" height="30" rx="0.5"/>
      <rect x="2" y="0" width="1" height="30" rx="0.5"/>
      <rect x="-2" y="-8" width="5" height="8" rx="1"/>
      
      <!-- Knife -->
      <g transform="translate(15, 0)">
        <rect x="0" y="0" width="1" height="30" rx="0.5"/>
        <path d="M 0 -8 L 3 -4 L 0 0 Z"/>
      </g>
    </g>
    
    <!-- Health Plus Icon -->
    <g transform="translate(50, 170)" fill="#10b981">
      <rect x="-1" y="-8" width="2" height="16" rx="1"/>
      <rect x="-8" y="-1" width="16" height="2" rx="1"/>
    </g>
  </g>
</svg>